<svg width="400" height="400" xmlns="http://www.w3.org/2000/svg">
 <!-- Created with Method Draw - http://github.com/duopixel/Method-Draw/ -->
 <g>
  <title>background</title>
  <rect fill="#fff" id="canvas_background" height="402" width="402" y="-1" x="-1"/>
  <g display="none" overflow="visible" y="0" x="0" height="100%" width="100%" id="canvasGrid">
   <rect fill="url(#gridpattern)" stroke-width="0" y="0" x="0" height="100%" width="100%"/>
  </g>
 </g>
 <g>
  <title>Layer 1</title>
  <path stroke="#000" id="svg_3" d="m399.000019,67.58166c0,36.634891 -88.871494,66.333343 -198.50004,66.333343m198.50004,-66.333343l0,0c0,36.634891 -88.871494,66.333343 -198.50004,66.333343c-109.628507,0 -198.499974,-29.698391 -198.499974,-66.333343m0,0l0,0c0,-36.634851 88.871467,-66.333323 198.499974,-66.333323c109.628547,0 198.50004,29.698471 198.50004,66.333323l0,265.33347c0,36.634851 -88.871494,66.333222 -198.50004,66.333222c-109.628507,0 -198.499974,-29.698371 -198.499974,-66.333222l0,-265.33347z" fill-opacity="null" stroke-opacity="null" stroke-width="1.5" fill="#fff"/>
 </g>
</svg>